# xmcd
#
# Track frame offsets:
#	150
#	15552
#	28510
#	40316
#	53801
#	70227
#	83323
#	93785
#	111229
#	132873
#
# Disc length: 2057 seconds
#
# Revision: 0
# Processed by: cddbd v1.5.1PL2 Copyright (c) Steve Scherf et al.
# Submitted via: dBpowerAMP V4.0
#
DISCID=7108070a
DTITLE=West Valley Highway - Marysville
DYEAR=2005
DGENRE=Country
TTITLE0=One of These Days
TTITLE1=I'm That Man
TTITLE2=A Lifetime Ago
TTITLE3=Marysville
TTITLE4=She's the Kind
TTITLE5=Back to Bakersfield
TTITLE6=Fire on My Heels
TTITLE7=Emmett Redeen
TTITLE8=Being Me
TTITLE9=Closing Time
EXTD=
EXTT0=
EXTT1=
EXTT2=
EXTT3=
EXTT4=
EXTT5=
EXTT6=
EXTT7=
EXTT8=
EXTT9=
PLAYORDER=
